<svg xmlns="http://www.w3.org/2000/svg" version="1.1" xmlns:xlink="http://www.w3.org/1999/xlink" xmlns:svgjs="http://svgjs.dev/svgjs" width="512px" height="512px"><svg width="512px" height="512px" viewBox="0 0 512 512" version="1.1" xmlns="http://www.w3.org/2000/svg" xmlns:xlink="http://www.w3.org/1999/xlink">
    <title>favicon</title>
    <defs>
        <linearGradient x1="50%" y1="0%" x2="50%" y2="99.4298986%" id="SvgjsLinearGradient1007">
            <stop stop-color="#877FF0" offset="0%"></stop>
            <stop stop-color="#6E66CD" offset="99.9480988%"></stop>
        </linearGradient>
    </defs>
    <g id="SvgjsG1006" stroke="none" stroke-width="1" fill="none" fill-rule="evenodd">
        <path d="M146.141456,-7.25467311e-15 L365.858544,7.25467311e-15 C416.675112,-4.215174e-15 435.102427,5.29105984 453.680205,15.2265641 C472.257983,25.1620684 486.837932,39.7420171 496.773436,58.3197949 C506.70894,76.8975727 512,95.3248882 512,146.141456 L512,365.858544 C512,416.675112 506.70894,435.102427 496.773436,453.680205 C486.837932,472.257983 472.257983,486.837932 453.680205,496.773436 C435.102427,506.70894 416.675112,512 365.858544,512 L146.141456,512 C95.3248882,512 76.8975727,506.70894 58.3197949,496.773436 C39.7420171,486.837932 25.1620684,472.257983 15.2265641,453.680205 C5.29105984,435.102427 0,416.675112 0,365.858544 L7.25467311e-15,146.141456 C-4.215174e-15,95.3248882 5.29105984,76.8975727 15.2265641,58.3197949 C25.1620684,39.7420171 39.7420171,25.1620684 58.3197949,15.2265641 C76.8975727,5.29105984 95.3248882,4.215174e-15 146.141456,-7.25467311e-15 Z" id="SvgjsPath1005" fill="url(#linearGradient-1)"></path>
        <path d="M149.142857,444 L119.428571,421.764706 L158.428571,369.882353 L112,369.882353 C112,359.073529 115.017857,340.466912 121.053571,314.0625 C127.089286,287.658088 135.369048,260.713235 145.892857,233.227941 C156.416667,205.433824 168.875,181.113971 183.267857,160.268382 C197.660714,139.422794 213.214286,129 229.928571,129 C241.380952,129 249.35119,132.551471 253.839286,139.654412 C258.327381,146.757353 264.75,157.411765 273.107143,171.617647 C283.011905,188.294118 291.988095,200.801471 300.035714,209.139706 C308.083333,217.477941 316.75,223.808824 326.035714,228.132353 C329.440476,225.661765 332.380952,223.963235 334.857143,223.036765 C337.333333,222.110294 340.27381,221.647059 343.678571,221.647059 C351.416667,221.647059 358.071429,224.426471 363.642857,229.985294 C369.214286,235.544118 372,242.029412 372,249.441176 L372,444 L353.428571,444 L353.428571,249.441176 C353.428571,246.970588 352.5,244.808824 350.642857,242.955882 C348.785714,241.102941 346.619048,240.176471 344.142857,240.176471 C341.666667,240.176471 339.5,241.102941 337.642857,242.955882 C335.785714,244.808824 334.857143,246.970588 334.857143,249.441176 L334.857143,272.602941 L316.285714,272.602941 L316.285714,263.801471 C304.52381,257.316176 292.452381,248.900735 280.071429,238.555147 C267.690476,228.209559 258.559524,216.860294 252.678571,204.507353 L242,258.705882 L279.142857,369.419118 L279.142857,444 L242,444 L242,369.882353 L204.857143,369.882353 L149.142857,444 Z M254.222222,124 C243.833333,124 234.939815,120.300926 227.541667,112.902778 C220.143519,105.50463 216.444444,96.6111111 216.444444,86.2222222 C216.444444,83.7037037 217.074074,79.9259259 218.333333,74.8888889 C214.87037,73.3148148 212.115741,71.0324074 210.069444,68.0416667 C208.023148,65.0509259 207,61.6666667 207,57.8888889 C207,52.537037 208.810185,48.0509259 212.430556,44.4305556 C216.050926,40.8101852 220.537037,39 225.888889,39 C229.666667,39 233.050926,40.0231481 236.041667,42.0694444 C239.032407,44.1157407 241.314815,46.8703704 242.888889,50.3333333 C244.777778,49.7037037 246.666667,49.2314815 248.555556,48.9166667 C250.444444,48.6018519 252.333333,48.4444444 254.222222,48.4444444 C264.611111,48.4444444 273.50463,52.1435185 280.902778,59.5416667 C288.300926,66.9398148 292,75.8333333 292,86.2222222 C292,96.6111111 288.300926,105.50463 280.902778,112.902778 C273.50463,120.300926 264.611111,124 254.222222,124 Z" id="SvgjsPath1004" fill="#FFFFFF" fill-rule="nonzero"></path>
    </g>
</svg><style>@media (prefers-color-scheme: light) { :root { filter: none; } }
@media (prefers-color-scheme: dark) { :root { filter: none; } }
</style></svg>