<?xml version="1.0" encoding="UTF-8"?>
<svg width="512px" height="512px" viewBox="0 0 512 512" version="1.1" xmlns="http://www.w3.org/2000/svg" xmlns:xlink="http://www.w3.org/1999/xlink">
    <title>favicon</title>
    <defs>
        <linearGradient x1="50%" y1="0%" x2="50%" y2="99.4298986%" id="linearGradient-1">
            <stop stop-color="#877FF0" offset="0%"></stop>
            <stop stop-color="#6E66CD" offset="99.9480988%"></stop>
        </linearGradient>
    </defs>
    <g id="favicon" stroke="none" stroke-width="1" fill="none" fill-rule="evenodd">
        <path d="M146.141456,-7.25467311e-15 L365.858544,7.25467311e-15 C416.675112,-4.215174e-15 435.102427,5.29105984 453.680205,15.2265641 C472.257983,25.1620684 486.837932,39.7420171 496.773436,58.3197949 C506.70894,76.8975727 512,95.3248882 512,146.141456 L512,365.858544 C512,416.675112 506.70894,435.102427 496.773436,453.680205 C486.837932,472.257983 472.257983,486.837932 453.680205,496.773436 C435.102427,506.70894 416.675112,512 365.858544,512 L146.141456,512 C95.3248882,512 76.8975727,506.70894 58.3197949,496.773436 C39.7420171,486.837932 25.1620684,472.257983 15.2265641,453.680205 C5.29105984,435.102427 0,416.675112 0,365.858544 L7.25467311e-15,146.141456 C-4.215174e-15,95.3248882 5.29105984,76.8975727 15.2265641,58.3197949 C25.1620684,39.7420171 39.7420171,25.1620684 58.3197949,15.2265641 C76.8975727,5.29105984 95.3248882,4.215174e-15 146.141456,-7.25467311e-15 Z" id="bg" fill="url(#linearGradient-1)"></path>
        <path d="M192,372 L173.6,358.235294 L197.75,326.117647 L169,326.117647 C169,319.426471 170.86875,307.908088 174.60625,291.5625 C178.34375,275.216912 183.470833,258.536765 189.9875,241.522059 C196.504167,224.316176 204.21875,209.261029 213.13125,196.356618 C222.04375,183.452206 231.675,177 242.025,177 C249.116667,177 254.052083,179.198529 256.83125,183.595588 C259.610417,187.992647 263.5875,194.588235 268.7625,203.382353 C274.895833,213.705882 280.454167,221.448529 285.4375,226.610294 C290.420833,231.772059 295.7875,235.691176 301.5375,238.367647 C303.645833,236.838235 305.466667,235.786765 307,235.213235 C308.533333,234.639706 310.354167,234.352941 312.4625,234.352941 C317.254167,234.352941 321.375,236.073529 324.825,239.514706 C328.275,242.955882 330,246.970588 330,251.558824 L330,372 L318.5,372 L318.5,251.558824 C318.5,250.029412 317.925,248.691176 316.775,247.544118 C315.625,246.397059 314.283333,245.823529 312.75,245.823529 C311.216667,245.823529 309.875,246.397059 308.725,247.544118 C307.575,248.691176 307,250.029412 307,251.558824 L307,265.897059 L295.5,265.897059 L295.5,260.448529 C288.216667,256.433824 280.741667,251.224265 273.075,244.819853 C265.408333,238.415441 259.754167,231.389706 256.1125,223.742647 L249.5,257.294118 L272.5,325.830882 L272.5,372 L249.5,372 L249.5,326.117647 L226.5,326.117647 L192,372 Z M256.888889,174 C250.533333,174 245.092593,171.737037 240.566667,167.211111 C236.040741,162.685185 233.777778,157.244444 233.777778,150.888889 C233.777778,149.348148 234.162963,147.037037 234.933333,143.955556 C232.814815,142.992593 231.12963,141.596296 229.877778,139.766667 C228.625926,137.937037 228,135.866667 228,133.555556 C228,130.281481 229.107407,127.537037 231.322222,125.322222 C233.537037,123.107407 236.281481,122 239.555556,122 C241.866667,122 243.937037,122.625926 245.766667,123.877778 C247.596296,125.12963 248.992593,126.814815 249.955556,128.933333 C251.111111,128.548148 252.266667,128.259259 253.422222,128.066667 C254.577778,127.874074 255.733333,127.777778 256.888889,127.777778 C263.244444,127.777778 268.685185,130.040741 273.211111,134.566667 C277.737037,139.092593 280,144.533333 280,150.888889 C280,157.244444 277.737037,162.685185 273.211111,167.211111 C268.685185,171.737037 263.244444,174 256.888889,174 Z" id="grandma" fill="#FFFFFF" fill-rule="nonzero"></path>
    </g>
</svg>